<?xml version="1.0" standalone="no"?>
<!DOCTYPE svg PUBLIC "-//W3C//DTD SVG 20010904//EN"
 "http://www.w3.org/TR/2001/REC-SVG-20010904/DTD/svg10.dtd">
<svg version="1.0" xmlns="http://www.w3.org/2000/svg"
 width="2817.000000pt" height="503.000000pt" viewBox="0 0 2817.000000 503.000000"
 preserveAspectRatio="xMidYMid meet">

<g transform="translate(0.000000,503.000000) scale(0.100000,-0.100000)"
fill="#000000" stroke="none">
<path d="M2855 4889 c-472 -38 -925 -220 -1300 -522 -115 -93 -319 -305 -407
-423 -249 -336 -404 -724 -459 -1149 -6 -49 -11 -173 -11 -275 -1 -381 75
-707 242 -1045 132 -267 263 -447 476 -655 369 -359 806 -575 1316 -651 165
-24 462 -29 613 -10 550 71 1037 310 1419 696 764 772 904 1968 339 2900 -202
332 -501 624 -843 824 -414 240 -902 349 -1385 310z m833 -521 l-3 -63 -85 -6
c-100 -8 -134 -19 -178 -62 -34 -33 -62 -106 -62 -164 l0 -33 119 0 c135 0
309 -26 416 -63 280 -96 427 -261 442 -497 20 -303 -149 -549 -485 -708 l-96
-45 52 -18 c29 -10 95 -38 146 -62 479 -227 691 -590 586 -1004 -78 -302 -348
-521 -760 -616 -94 -21 -109 -22 -1072 -25 l-978 -3 0 69 0 69 108 6 c167 7
228 39 274 141 l23 51 0 1175 c0 1120 -1 1178 -19 1228 -41 119 -113 163 -278
170 l-108 5 0 63 0 64 583 2 582 3 -2 43 c-6 139 -86 211 -240 220 l-83 5 0
58 0 59 560 0 561 0 -3 -62z m-331 -3503 c12 -84 28 -130 56 -162 42 -48 85
-65 187 -72 l85 -6 3 -62 3 -63 -561 0 -560 0 0 60 0 60 61 0 c161 0 245 69
265 219 l7 51 226 -2 c217 -3 226 -4 228 -23z"/>
<path d="M2600 2652 c0 -1369 -3 -1300 64 -1379 40 -46 113 -81 187 -90 l49
-6 0 625 0 625 93 7 c87 7 264 29 335 42 l32 6 0 -652 0 -653 75 7 c217 20
416 118 538 266 81 98 124 238 112 370 -19 221 -104 397 -271 563 -68 68 -233
186 -323 232 -46 23 -49 23 -117 9 -122 -26 -374 -55 -531 -61 -84 -3 -153 -4
-153 -2 0 16 60 143 71 150 8 5 42 9 77 9 l62 0 0 530 0 530 230 0 230 0 0
-495 0 -495 65 25 c263 99 416 252 460 463 38 177 -7 346 -122 460 -70 69
-137 106 -239 132 -71 18 -111 20 -501 20 l-423 0 0 -1238z"/>
<path d="M8421 3478 c-5 -13 -145 -363 -311 -778 -307 -767 -386 -950 -436
-1010 -30 -35 -79 -60 -119 -60 -21 0 -25 -5 -25 -30 l0 -30 295 0 295 0 0 30
c0 28 -2 30 -39 30 -45 0 -92 15 -103 33 -24 38 -4 124 79 340 l46 117 328 0
329 0 15 -37 c52 -124 115 -329 115 -374 0 -48 -2 -51 -35 -65 -19 -7 -53 -14
-75 -14 -38 0 -40 -2 -40 -30 l0 -30 565 0 565 0 0 29 c0 27 -2 29 -55 33 -43
4 -62 11 -84 32 -54 51 -54 62 -58 715 l-4 605 82 -105 c101 -127 86 -109 662
-781 376 -440 474 -548 493 -548 l24 0 0 803 c0 802 5 939 35 997 18 35 67 60
115 60 27 0 30 3 30 30 l0 30 -301 0 -300 0 3 -27 c3 -26 7 -28 58 -34 152
-16 159 -57 160 -830 0 -262 -3 -490 -6 -507 -6 -29 -9 -26 -124 117 -65 80
-164 200 -221 267 -57 67 -136 159 -175 205 -223 263 -387 457 -529 627 -135
161 -164 191 -187 191 l-28 1 0 -822 c0 -940 -3 -978 -71 -1013 -61 -32 -137
-12 -183 48 -58 76 -96 168 -458 1107 -143 371 -262 681 -265 688 -9 21 -53
14 -62 -10z m33 -504 c4 -15 57 -165 118 -333 61 -168 113 -314 116 -323 4
-17 -13 -18 -258 -18 -150 0 -260 4 -258 9 96 258 265 691 269 691 4 0 10 -12
13 -26z"/>
<path d="M26262 2717 c-172 -430 -335 -829 -363 -887 -84 -175 -118 -205 -221
-198 -76 6 -107 29 -133 99 -19 52 -20 85 -23 744 -3 698 1 813 33 875 19 37
42 49 105 57 47 5 50 8 50 34 l0 29 -315 0 -315 0 0 -29 c0 -27 2 -28 57 -34
69 -7 103 -31 122 -83 21 -62 30 -292 30 -789 0 -557 -9 -765 -38 -830 -23
-53 -63 -75 -136 -75 -43 0 -45 -1 -45 -30 l0 -30 600 0 600 0 0 30 c0 29 -2
30 -44 30 -99 0 -127 34 -106 127 7 32 38 126 70 208 l57 150 330 3 331 2 45
-122 c82 -223 100 -302 79 -335 -11 -18 -58 -33 -103 -33 -37 0 -39 -2 -39
-30 l0 -30 300 0 300 0 0 29 c0 25 -4 29 -39 34 -73 9 -115 61 -191 234 -31
70 -352 894 -613 1576 -19 48 -26 57 -47 57 -24 0 -40 -38 -338 -783z m338
256 c11 -34 219 -614 235 -655 7 -17 -9 -18 -254 -18 -144 0 -261 3 -261 7 0
7 264 703 267 703 1 0 7 -17 13 -37z"/>
<path d="M19370 3485 c-8 -2 -49 -9 -90 -15 -231 -38 -466 -178 -606 -363 -65
-86 -129 -223 -160 -342 -34 -128 -38 -343 -10 -469 63 -284 247 -522 501
-649 274 -137 610 -139 893 -7 217 102 394 293 481 520 49 125 66 227 65 390
0 171 -21 273 -84 407 -154 329 -453 517 -840 528 -74 2 -142 2 -150 0z m207
-205 c205 -34 377 -143 489 -311 88 -133 124 -261 124 -444 0 -321 -144 -577
-392 -699 -125 -62 -198 -79 -333 -79 -291 0 -523 147 -645 408 -50 106 -70
188 -77 315 -13 242 70 470 227 620 159 152 392 225 607 190z"/>
<path d="M24404 3479 c-222 -25 -398 -166 -450 -364 -21 -75 -18 -201 6 -278
43 -140 131 -235 369 -396 189 -129 252 -185 288 -259 24 -50 28 -69 28 -147
0 -73 -4 -98 -22 -131 -59 -111 -203 -174 -363 -161 -111 9 -199 58 -237 132
-21 40 -43 122 -43 163 0 29 -3 32 -29 32 l-29 0 -7 -172 c-4 -95 -8 -195 -9
-222 l-1 -48 47 -19 c137 -54 378 -74 523 -44 206 43 367 195 406 383 16 80 7
223 -20 293 -46 121 -135 219 -301 331 -242 164 -314 228 -357 317 -22 45 -27
68 -27 126 1 82 18 127 68 183 58 64 122 87 241 87 85 0 107 -4 149 -24 67
-33 103 -91 112 -183 7 -67 7 -69 33 -66 l26 3 8 209 c4 115 6 211 3 213 -9
10 -197 41 -266 45 -41 3 -107 1 -146 -3z"/>
<path d="M14808 2638 c-3 -734 -6 -850 -20 -897 -23 -77 -51 -101 -127 -108
-59 -6 -61 -7 -61 -34 l0 -29 310 0 310 0 0 30 c0 28 -2 30 -40 30 -52 0 -102
21 -122 51 -37 57 -40 112 -45 698 -3 315 -1 577 4 581 4 5 56 -51 114 -123
59 -73 317 -377 574 -677 257 -300 479 -560 492 -577 16 -21 34 -33 49 -33
l24 0 1 698 c0 765 8 1027 31 1082 22 52 51 72 108 78 47 4 50 6 50 33 l0 29
-300 0 -300 0 0 -29 c0 -27 2 -29 55 -33 61 -5 102 -29 123 -70 27 -57 33
-190 30 -741 l-3 -558 -101 128 c-56 70 -173 211 -260 313 -176 206 -327 383
-430 507 -38 44 -147 174 -242 287 -137 163 -178 206 -197 206 l-24 0 -3 -842z"/>
<path d="M20650 2678 c0 -442 -5 -836 -10 -875 -5 -40 -17 -87 -25 -103 -23
-44 -71 -70 -127 -70 -47 0 -48 -1 -48 -30 l0 -30 310 0 310 0 0 30 c0 28 -2
30 -40 30 -22 0 -56 7 -76 15 -57 24 -73 75 -84 268 -10 183 -11 924 -2 1005
l7 53 100 -124 c55 -68 325 -388 600 -710 427 -500 504 -586 527 -586 l27 -1
3 868 c3 646 7 876 16 903 18 54 53 81 112 87 47 4 50 6 50 33 l0 29 -300 0
-300 0 0 -29 c0 -27 2 -28 58 -34 66 -5 93 -19 115 -57 34 -56 38 -145 35
-732 l-3 -578 -60 78 c-54 70 -188 230 -385 462 -110 129 -309 364 -439 519
-299 356 -322 381 -347 381 l-24 0 0 -802z"/>
<path d="M6400 3440 c0 -27 3 -30 30 -30 17 0 46 -7 66 -15 46 -19 63 -61 74
-188 12 -133 12 -1209 0 -1353 -14 -172 -38 -210 -142 -223 -49 -5 -53 -8 -56
-34 l-3 -28 383 4 c327 3 392 6 443 21 258 75 405 255 405 496 0 134 -42 238
-132 328 -51 52 -133 101 -203 122 -22 6 -47 14 -55 17 -9 3 3 11 31 22 163
63 279 233 279 412 0 244 -150 420 -397 464 -56 10 -171 14 -400 15 l-323 0 0
-30z m690 -179 c120 -45 180 -130 188 -266 5 -95 -7 -147 -51 -212 -59 -88
-172 -139 -334 -150 l-93 -6 0 326 0 326 23 5 c52 11 213 -2 267 -23z m-17
-826 c131 -27 238 -113 272 -216 27 -80 18 -208 -20 -277 -66 -122 -216 -189
-407 -181 -53 3 -91 9 -101 18 -15 12 -17 49 -17 342 l0 329 103 0 c56 0 133
-7 170 -15z"/>
<path d="M11310 3441 c0 -27 3 -28 54 -34 73 -7 94 -21 118 -75 17 -38 22 -80
30 -261 12 -255 3 -1224 -12 -1296 -22 -108 -45 -131 -138 -143 -53 -6 -57 -9
-60 -34 l-3 -28 330 0 331 0 0 29 c0 27 -2 29 -55 33 -61 5 -102 29 -122 69
-26 53 -33 169 -31 473 l3 308 91 -108 c51 -60 182 -216 292 -346 216 -256
261 -314 264 -349 4 -28 -32 -49 -84 -49 -35 0 -38 -2 -38 -30 l0 -30 320 0
320 0 0 30 c0 27 -3 30 -33 30 -52 0 -127 44 -204 119 -60 59 -698 778 -716
809 -4 5 61 88 144 183 324 372 488 556 529 593 50 45 113 75 158 76 29 0 32
3 32 30 l0 30 -295 0 -295 0 0 -29 c0 -26 3 -29 46 -34 64 -7 80 -24 61 -68
-16 -38 -90 -139 -181 -245 -34 -39 -140 -162 -236 -274 l-175 -203 -3 284
c-3 287 5 396 33 450 19 36 43 48 105 56 47 5 50 8 50 34 l0 29 -315 0 -315 0
0 -29z"/>
<path d="M13770 3440 c0 -28 3 -30 38 -31 96 -1 133 -38 151 -149 13 -81 15
-1378 2 -1467 -18 -119 -61 -163 -161 -163 -38 0 -40 -2 -40 -30 l0 -30 330 0
330 0 0 29 c0 27 -2 29 -55 33 -93 8 -128 47 -146 161 -6 37 -9 350 -7 777 3
779 3 771 60 813 15 11 49 22 77 25 48 4 51 6 51 33 l0 29 -315 0 -315 0 0
-30z"/>
<path d="M16733 3463 c-90 -4 -93 -4 -93 -28 0 -21 6 -25 48 -30 80 -11 103
-24 126 -74 21 -45 21 -57 24 -761 3 -719 0 -805 -33 -874 -19 -40 -72 -66
-135 -66 -38 0 -40 -2 -40 -30 l0 -30 386 0 c421 0 524 9 678 57 327 101 559
375 621 732 21 118 19 315 -4 426 -73 355 -296 574 -672 661 -61 14 -137 17
-444 19 -203 1 -412 0 -462 -2z m692 -193 c50 -6 125 -19 168 -30 243 -63 404
-231 468 -489 19 -74 21 -104 16 -235 -6 -175 -24 -254 -90 -380 -93 -179
-255 -300 -472 -353 -89 -21 -377 -25 -412 -5 l-23 13 0 739 0 739 63 4 c132
7 195 6 282 -3z"/>
<path d="M22510 3440 c0 -27 3 -30 30 -30 17 0 45 -6 64 -14 51 -21 66 -65 76
-229 12 -182 12 -1087 1 -1278 -13 -204 -35 -248 -131 -257 -47 -4 -50 -6 -50
-33 l0 -29 569 0 569 0 8 188 c5 103 9 194 9 202 0 9 -11 16 -27 18 -25 3 -27
0 -38 -55 -16 -75 -41 -116 -88 -139 -33 -17 -64 -19 -293 -19 -202 0 -259 3
-272 14 -15 12 -17 48 -17 342 l0 329 208 0 c114 0 227 -5 252 -11 57 -13 89
-43 96 -91 6 -33 10 -38 33 -38 l26 0 0 225 0 225 -26 0 c-21 0 -27 -6 -35
-37 -5 -21 -21 -45 -37 -57 -27 -20 -43 -21 -273 -24 l-244 -3 0 321 0 321
258 -3 c289 -3 305 -7 337 -74 9 -20 20 -63 22 -95 6 -56 7 -59 33 -59 l27 0
7 148 c3 81 9 175 12 210 l6 62 -556 0 -556 0 0 -30z"/>
</g>
</svg>
